# xmcd CD database file
#
# Track frame offsets:
#	150
#	10473
#	18977
#	34785
#	50625
#	62218
#	79826
#	92789
#	104750
#	121310
#	133456
#
# Disc length: 2013 seconds
#
# Revision: 0
# Processed by: cddbd v1.4PL0 Copyright (c) Steve Scherf et al.
# Submitted via: CDex 1.50Beta7
#
DISCID=9d07db0b
DTITLE=Davey Brothers - Monkey No. 9
DYEAR=2003
DGENRE=Blues
TTITLE0=Sunshine day
TTITLE1=Sweet  fucked up love
TTITLE2=Everybode needs someone
TTITLE3=Heart go faster
TTITLE4=Third stone from the sun
TTITLE5=Chickenbone
TTITLE6=She's so fine
TTITLE7=I know you too well
TTITLE8=The girl is mine
TTITLE9=Where's the devil
TTITLE10=3
EXTD=YEAR: 2003
EXTT0=
EXTT1=
EXTT2=
EXTT3=
EXTT4=
EXTT5=
EXTT6=
EXTT7=
EXTT8=
EXTT9=
EXTT10=
PLAYORDER=
